<svg width="688" height="803" viewBox="0 0 688 803" fill="none" xmlns="http://www.w3.org/2000/svg">
<path fill-rule="evenodd" clip-rule="evenodd" d="M54.5002 778.47C52.9328 795.749 53.2628 798.411 57.3134 801.11C60.275 803.069 63.3645 803.426 66.0251 802.097C72.5299 798.826 96.6809 775.24 123.398 746.064C124.762 744.574 126.084 743.13 127.365 741.73C160.514 705.518 166.258 699.244 171.357 699.73C172.426 699.832 173.466 700.231 174.724 700.714L174.725 700.714C174.957 700.803 175.196 700.895 175.445 700.988C297.922 754.984 433.689 746.02 552.349 676.429C563.201 691.806 570.559 705.174 577.444 717.683C586.765 734.617 595.219 749.974 610.296 766.604C620.093 767.876 621.205 761.425 617.267 726.185C613.613 693.478 607.1 649.472 604.536 640.162C603.55 636.579 606.959 630.609 616.663 618.929C644.392 585.554 666.634 543.627 677.232 504.76C697.122 431.814 688.988 358.203 654.069 295.149C641.555 272.551 612.326 234.408 593.828 216.534C551.662 175.79 510.659 152.328 441.972 129.641C431.526 126.191 429.61 124.441 425.66 114.741C416.472 92.1643 377.701 22.9804 367.92 11.7008C359.331 1.79535 356.451 0 349.146 0C334.214 0 319.19 19.9876 283.386 87.4851L263.57 124.843C195.372 144.897 139.309 177.284 84.393 229.447C48.8224 269.129 21.1674 317.015 8.62577 360.635C-0.197272 391.333 -2.71754 445.699 3.24493 476.782C13.1074 525.92 43.8355 583.813 80.1754 631.975C69.6323 680.418 60.1513 729.199 54.5002 778.47ZM476.891 555.911C494.149 580.04 535.202 642.507 539.034 651.615C434.011 722.216 296.971 728.45 192.689 676.626C192.157 675.148 210.306 656.026 230.307 636.606C309.87 559.349 390.281 505.925 427.005 505.925C436.51 505.925 452.839 522.284 476.891 555.911ZM643.223 340.763C671.934 417.709 657.658 515.265 607.712 583.441C603.251 589.53 598.703 594.514 597.604 594.517C594.863 594.523 594.655 593.867 583.136 549.057C562.235 467.742 536.689 391.596 488.816 269.422L412.744 381.955C412.171 382.803 411.49 383.536 410.733 384.146C410.308 385.208 409.693 386.215 408.884 387.116C405.193 391.224 398.87 391.563 394.762 387.872L337.53 336.461L282.921 430.786C280.967 434.161 277.342 435.966 273.697 435.762C271.666 435.873 269.583 435.368 267.742 434.183L209.149 396.445L116.732 505.362C107.041 537.244 98.9396 567.725 93.016 595.937C70.682 577.557 46.2815 512.781 34.3586 474.167C27.1567 436.521 30.4173 384.924 41.9813 353.533C68.9847 280.24 122.659 219.542 193.569 182.108C214.833 170.883 247.848 158.062 249.748 160.861C209.573 252.594 165.563 358.239 132.721 455.606L199.18 377.281C201.285 374.8 204.339 373.602 207.355 373.765C209.39 373.651 211.478 374.156 213.323 375.344L270.565 412.211L326.437 315.704C329.205 310.924 335.322 309.293 340.102 312.06C341.118 312.648 341.992 313.388 342.712 314.234C342.749 314.266 342.787 314.299 342.824 314.332C342.842 314.348 342.86 314.364 342.878 314.381L399.749 365.467L479.928 246.858C476.957 239.352 473.905 231.676 470.769 223.821C458.228 192.403 448.836 165.852 449.9 164.803C452.874 161.886 479.277 172.575 506.88 187.87C570.234 222.976 620.161 278.961 643.223 340.763Z" fill="#29BF89"/>
</svg>
